<svg width="100" height="174" viewBox="0 0 100 174" fill="none" xmlns="http://www.w3.org/2000/svg">
<rect x="0.5" y="0.5" width="99" height="173" rx="49.5" stroke="black"/>
<rect x="5.5" y="5.5" width="89" height="89" rx="44.5" fill="#B3B714"/>
<rect x="5.5" y="5.5" width="89" height="89" rx="44.5" stroke="#32363F"/>
<path d="M55.5 40.8333C56.4725 40.8333 57.4051 41.2196 58.0927 41.9073C58.7804 42.5949 59.1667 43.5275 59.1667 44.5M55.5 33.5C58.4174 33.5 61.2153 34.6589 63.2782 36.7218C65.3411 38.7847 66.5 41.5826 66.5 44.5M37.1667 35.3333H44.5L48.1667 44.5L43.5833 47.25C45.5468 51.2311 48.7689 54.4532 52.75 56.4167L55.5 51.8333L64.6667 55.5V62.8333C64.6667 63.8058 64.2804 64.7384 63.5927 65.4261C62.9051 66.1137 61.9725 66.5 61 66.5C53.8487 66.0654 47.1036 63.0286 42.0375 57.9625C36.9714 52.8964 33.9346 46.1513 33.5 39C33.5 38.0275 33.8863 37.0949 34.5739 36.4073C35.2616 35.7196 36.1942 35.3333 37.1667 35.3333Z" stroke="white" stroke-width="2" stroke-linecap="round" stroke-linejoin="round"/>
</svg>
